<svg xmlns="http://www.w3.org/2000/svg" xmlns:xlink="http://www.w3.org/1999/xlink" width="500" zoomAndPan="magnify" viewBox="0 0 375 374.999991" height="500" preserveAspectRatio="xMidYMid meet" version="1.2"><defs><clipPath id="8a0ba4e6ef"><path d="M 12.1875 0.0390625 L 362.839844 0.0390625 L 362.839844 374.941406 L 12.1875 374.941406 Z M 12.1875 0.0390625 "/></clipPath></defs><g id="5b83a8b964"><g clip-rule="nonzero" clip-path="url(#8a0ba4e6ef)"><path style=" stroke:none;fill-rule:nonzero;fill:#bc0000;fill-opacity:1;" d="M 348.917969 106.800781 C 354.640625 55.316406 352.570312 0.414062 352.570312 0.414062 C 352.570312 0.414062 331.425781 267.84375 217.351562 348.113281 C 299.960938 333.941406 362.839844 262.019531 362.839844 175.367188 C 362.839844 151.035156 357.875 127.859375 348.917969 106.800781 Z M 327.957031 70.511719 C 326.253906 68.230469 324.507812 65.984375 322.699219 63.792969 C 296.957031 130.800781 256.90625 221.148438 217.917969 252.921875 C 197.929688 269.214844 186.402344 268.324219 178.945312 256.949219 C 186.265625 261.171875 196.476562 258.597656 211.421875 246.421875 C 250.527344 214.546875 290.710938 123.714844 316.449219 56.640625 C 284.417969 21.855469 238.527344 0.0390625 187.515625 0.0390625 C 124.535156 0.0390625 69.332031 33.261719 38.421875 83.125 C 64.410156 69.019531 115.695312 51.472656 142.832031 112.074219 C 179.199219 193.28125 155.09375 321.015625 219.925781 268.167969 C 260.589844 235.027344 302.414062 138.148438 327.957031 70.511719 Z M 38.628906 95.285156 C 124 85.960938 109.320312 272.449219 140.929688 344.359375 C 146.042969 345.769531 151.242188 346.953125 156.527344 347.902344 C 113.859375 286.433594 140.332031 58.046875 35.222656 88.535156 C 20.589844 114.140625 12.1875 143.765625 12.1875 175.367188 C 12.1875 246.492188 54.5625 307.675781 115.421875 335.175781 C 130.867188 391.507812 167.519531 371.484375 167.519531 371.484375 C 85.621094 386.421875 131.273438 106.390625 38.628906 95.285156 "/></g><path style="fill:none;stroke-width:4;stroke-linecap:butt;stroke-linejoin:miter;stroke:#bc0000;stroke-opacity:1;stroke-miterlimit:4;" d="M 0.00188868 1.999309 L 160.001899 1.999309 " transform="matrix(0.75,0,0,0.75,150.897021,59.266143)"/></g></svg>